<?xml version="1.0" standalone="no"?>
<!DOCTYPE svg PUBLIC "-//W3C//DTD SVG 20010904//EN"
 "http://www.w3.org/TR/2001/REC-SVG-20010904/DTD/svg10.dtd">
<svg version="1.0" xmlns="http://www.w3.org/2000/svg"
 width="602.000000pt" height="602.000000pt" viewBox="0 0 602.000000 602.000000"
 preserveAspectRatio="xMidYMid meet">
<metadata>
Created by potrace 1.14, written by Peter Selinger 2001-2017
</metadata>
<g transform="translate(0.000000,602.000000) scale(0.100000,-0.100000)"
fill="#000000" stroke="none">
<path d="M1678 4336 c-731 -727 -1328 -1326 -1328 -1332 0 -5 598 -608 1330
-1339 l1330 -1330 1330 1330 c732 731 1330 1334 1330 1339 0 9 -2646 2649
-2659 2653 -3 1 -603 -593 -1333 -1321z m3004 -609 l712 -718 -715 -715 c-393
-394 -928 -927 -1190 -1185 l-477 -469 -1186 1181 c-653 650 -1185 1186 -1184
1191 2 5 536 545 1187 1199 l1184 1191 479 -479 c264 -263 799 -801 1190
-1196z"/>
<path d="M2316 3793 c13 -412 35 -967 40 -1036 l6 -78 47 3 46 3 7 90 c6 80
28 593 43 1013 l5 152 -99 0 -100 0 5 -147z"/>
<path d="M3619 3878 c82 -184 145 -471 157 -723 13 -272 -41 -560 -152 -802
-19 -42 -34 -77 -34 -80 0 -2 24 -3 53 -1 l52 3 43 75 c88 156 161 379 187
578 26 198 17 360 -31 561 -27 114 -40 148 -129 326 l-60 120 -57 3 -57 3 28
-63z"/>
<path d="M2894 3177 c-3 -8 -4 -45 -2 -83 l3 -69 250 -3 c137 -1 254 -1 260 2
6 2 9 36 7 85 l-4 81 -254 0 c-204 0 -256 -3 -260 -13z"/>
<path d="M2305 2376 c-4 -42 -5 -82 -1 -91 4 -12 26 -15 111 -15 l106 0 -3 88
-3 87 -102 3 -101 3 -7 -75z"/>
</g>
</svg>
